<?xml version="1.0" standalone="no"?>
<!DOCTYPE svg PUBLIC "-//W3C//DTD SVG 20010904//EN"
 "http://www.w3.org/TR/2001/REC-SVG-20010904/DTD/svg10.dtd">
<svg version="1.0" xmlns="http://www.w3.org/2000/svg"
 width="512.000000pt" height="512.000000pt" viewBox="0 0 512.000000 512.000000"
 preserveAspectRatio="xMidYMid meet">

<g transform="translate(0.000000,512.000000) scale(0.100000,-0.100000)"
fill="#000000" stroke="none">
<path d="M3321 4364 c-252 -42 -504 -180 -685 -376 l-76 -81 0 -396 0 -396
-76 -60 c-72 -56 -75 -60 -52 -68 106 -40 163 -83 205 -154 14 -24 29 -41 33
-36 4 4 45 159 90 343 46 184 92 352 102 373 53 106 148 168 269 175 141 8
251 -52 308 -170 16 -35 94 -274 172 -533 78 -258 146 -474 152 -480 6 -7 11
-6 14 3 17 45 87 113 150 144 l68 33 349 5 350 5 12 42 c46 157 59 428 29 598
-80 459 -401 844 -821 984 -179 60 -402 77 -593 45z"/>
<path d="M3146 3370 c-3 -8 -42 -161 -86 -340 -45 -179 -91 -348 -104 -376
-29 -63 -81 -116 -149 -151 -46 -24 -63 -28 -142 -28 -74 0 -98 5 -137 24 -60
29 -121 88 -148 142 -12 23 -25 37 -29 33 -4 -5 -61 -156 -125 -336 -65 -180
-131 -347 -146 -372 -75 -118 -235 -170 -377 -122 -62 21 -145 92 -174 149
-17 32 -113 344 -269 876 -12 42 -25 70 -30 65 -5 -5 -36 -86 -69 -181 -73
-210 -87 -238 -146 -292 -80 -74 -117 -85 -298 -89 -86 -2 -157 -7 -157 -11 0
-4 23 -47 51 -96 273 -476 780 -942 1445 -1328 309 -179 428 -220 574 -198 89
14 143 36 292 117 483 264 847 531 1164 855 192 198 341 393 449 591 l37 68
-256 0 -255 0 -15 -27 c-24 -47 -88 -104 -146 -132 -46 -21 -69 -26 -135 -26
-93 1 -149 22 -214 80 -76 69 -62 32 -271 720 -62 204 -116 377 -121 385 -7
13 -8 13 -13 0z"/>
<path d="M1863 2558 c-76 -61 -139 -112 -141 -113 -2 -2 71 -260 84 -295 8
-23 15 -7 103 242 44 122 84 235 90 251 6 15 9 27 6 27 -2 0 -66 -50 -142
-112z"/>
</g>
</svg>
